<?xml version="1.0" encoding="utf-8"?>
<!-- Generator: Adobe Illustrator 24.0.2, SVG Export Plug-In . SVG Version: 6.00 Build 0)  -->
<svg version="1.1" id="Capa_1" xmlns="http://www.w3.org/2000/svg" xmlns:xlink="http://www.w3.org/1999/xlink" x="0px" y="0px"
	 viewBox="0 0 545 501" style="enable-background:new 0 0 545 501;" xml:space="preserve">
<style type="text/css">
	.st0{fill:#FFFFFF;}
</style>
<path class="st0" d="M369.6,34.5c-22.6,0-44.2,5.2-64.2,15.4c-13.6,7-26.1,16.2-36.9,27.2c-10.7-11-23.3-20.2-36.9-27.2
	c-20-10.2-41.6-15.4-64.2-15.4C89.4,34.5,26,98,26,175.9c0,55.2,29.2,113.9,86.7,174.3c48,50.5,106.8,92.5,147.7,118.9l8.1,5.3
	l8.1-5.3c40.9-26.4,99.7-68.5,147.7-119C481.8,289.7,511,231,511,175.8C511,98,447.6,34.5,369.6,34.5z"/>
</svg>
