<?xml version="1.0" encoding="utf-8"?>
<!-- Generator: Adobe Illustrator 24.0.2, SVG Export Plug-In . SVG Version: 6.00 Build 0)  -->
<svg version="1.1" id="Capa_1" xmlns="http://www.w3.org/2000/svg" xmlns:xlink="http://www.w3.org/1999/xlink" x="0px" y="0px"
	 viewBox="0 0 448.3 448.3" style="enable-background:new 0 0 448.3 448.3;" xml:space="preserve">
<style type="text/css">
	.st0{fill:#FFFFFF;}
</style>
<g>
	<g>
		<g>
			<path class="st0" d="M0,194.9c-0.2,16.9,10.3,32.2,26.1,38.1v-72.6c0-1,0.5-2.6,0.5-3.7C10.7,162.6,0,177.8,0,194.9z"/>
			<path class="st0" d="M142.6,284.7H74.2l25.6,93c3.8,14.2,16.7,24.1,31.3,24c10.5,0.1,20.3-4.7,26.6-13.1
				c6.4-7.9,8.3-18.5,5.2-28.2L142.6,284.7z"/>
			<path class="st0" d="M26.6,156.2h0.5v-0.5C27.2,156.2,27.2,156.2,26.6,156.2z"/>
			<path class="st0" d="M401.2,148.9h-4.2v94h4.2c26,0,47-21.1,47-47C448.3,169.9,427.2,148.9,401.2,148.9z"/>
			<path class="st0" d="M41.8,160.4v74.2c0.6,19.2,16.3,34.5,35.5,34.5h95.1V128H77.3C58.5,128,41.8,141.6,41.8,160.4z"/>
			<polygon class="st0" points="188.1,271.2 381.4,348.5 381.4,46.5 188.1,123.8 			"/>
		</g>
	</g>
</g>
</svg>
